<svg viewBox="0 0 24 24" fill="none" xmlns="http://www.w3.org/2000/svg">
  <defs>
    <linearGradient id="bg" x1="0" y1="0" x2="24" y2="24" gradientUnits="userSpaceOnUse">
      <stop offset="0%"   stop-color="#34d399"/>
      <stop offset="50%"  stop-color="#06b6d4"/>
      <stop offset="100%" stop-color="#2563eb"/>
    </linearGradient>
  </defs>
  <rect width="24" height="24" rx="5" fill="url(#bg)"/>
  <path d="M4 6C4 4.89543 4.89543 4 6 4H18C19.1046 4 20 4.89543 20 6V18C20 19.1046 19.1046 20 18 20H6C4.89543 20 4 19.1046 4 18V6Z" stroke="white" stroke-width="1.2" opacity="0.5"/>
  <path d="M7.5 9L9.5 11L7.5 13" stroke="white" stroke-width="1.8" stroke-linecap="round" stroke-linejoin="round"/>
  <circle cx="14.5" cy="12" r="3.2" fill="white"/>
  <path d="M14.5 8.8V7"   stroke="white" stroke-width="0.8" opacity="0.4"/>
  <path d="M17.7 12H19"   stroke="white" stroke-width="0.8" opacity="0.4"/>
  <path d="M14.5 15.2V17" stroke="white" stroke-width="0.8" opacity="0.4"/>
  <circle cx="14.5" cy="7"  r="1.1" fill="white" opacity="0.8"/>
  <circle cx="19"   cy="12" r="1.1" fill="white" opacity="0.8"/>
  <circle cx="14.5" cy="17" r="1.1" fill="white" opacity="0.8"/>
</svg>
